<svg width="24" height="24" viewBox="0 0 24 24" fill="none" xmlns="http://www.w3.org/2000/svg">
<path d="M17.5 6.3125L17.1562 6.65625C15.375 8.4375 13 9.4375 10.5 9.5V13.5V13.5312C13 13.5625 15.375 14.5938 17.1562 16.375L17.5 16.7188V6.3125ZM9 8H10.25C12.4375 8 14.5312 7.15625 16.0938 5.59375L17.2812 4.40625C17.9062 3.78125 19 4.21875 19 5.125V9.625C19.5625 9.90625 20 10.6562 20 11.5C20 12.375 19.5625 13.125 19 13.4062V17.9062C19 18.8125 17.9062 19.25 17.2812 18.625L16.0938 17.4375C14.5938 15.9375 12.5938 15.0625 10.5 15.0312V18.25C10.5 19.2188 9.6875 20 8.75 20H7.75C6.78125 20 6 19.2188 6 18.25V15C4.875 15 4 14.125 4 13V10C4 8.90625 4.875 8 6 8H9ZM7.5 15V18.25C7.5 18.4062 7.59375 18.5 7.75 18.5H8.75C8.875 18.5 9 18.4062 9 18.25V15H7.5ZM6 9.5C5.71875 9.5 5.5 9.75 5.5 10V13C5.5 13.2812 5.71875 13.5 6 13.5H7.5H9V9.5H6Z" fill="black" fill-opacity="0.72"/>
</svg>
