<svg width="120" height="152" viewBox="0 0 120 152" fill="none" xmlns="http://www.w3.org/2000/svg">
<path d="M78.2126 64.4529L60.1458 82.611C57.1731 80.1437 54.3963 77.1857 51.9556 73.787C49.7942 70.7777 48.0481 67.6327 46.7131 64.4529L69.2529 51.9766C66.6899 53.8076 66.6205 58.0879 69.0945 61.5324C71.5685 64.9769 75.6525 66.2854 78.214 64.4529H78.2126Z" fill="#EBECEE"/>
<path d="M78.4307 64.2857C78.4307 64.2857 78.4265 64.2788 78.4238 64.2746C78.3307 64.1637 78.1682 64.1443 78.0501 64.2289C76.8846 65.0619 75.3413 65.2324 73.7049 64.7085C72.038 64.1748 70.4808 62.9897 69.3181 61.3721C68.1568 59.7531 67.5317 57.9013 67.5609 56.1548C67.5901 54.4402 68.2471 53.036 69.414 52.203C69.5334 52.1171 69.5654 51.9535 69.4862 51.8287C69.4848 51.8274 69.4834 51.8246 69.482 51.8232C69.4015 51.704 69.2445 51.6652 69.1167 51.7345C69.1125 51.7373 69.107 51.74 69.1028 51.7428L46.8492 64.0598L46.6048 64.1956L46.577 64.2109C46.4534 64.2802 46.4006 64.4299 46.4561 64.5602C47.8286 67.83 49.6025 70.9889 51.7292 73.9497C54.1337 77.2971 56.905 80.2842 59.9666 82.8249C60.0194 82.8679 60.0819 82.8901 60.1444 82.8901C60.2167 82.8901 60.2875 82.8623 60.3417 82.8069L60.3597 82.7889L77.111 65.9532L78.3932 64.6655C78.3932 64.6655 78.396 64.6655 78.396 64.6627L78.4099 64.6489C78.5085 64.5491 78.5168 64.3938 78.4307 64.2857ZM52.1807 73.6267C50.1276 70.7685 48.4078 67.7246 47.0646 64.5754L67.8526 53.0693C67.8248 53.1137 67.7984 53.1566 67.7734 53.201C67.7512 53.2384 67.729 53.2772 67.7081 53.316C67.6859 53.3548 67.6651 53.395 67.6442 53.4352C67.6359 53.4519 67.6276 53.4685 67.6192 53.4838C67.6012 53.5184 67.5845 53.5531 67.5679 53.5891C67.529 53.6723 67.4914 53.7554 67.4567 53.8414C67.44 53.8802 67.4248 53.9176 67.4109 53.9564C67.3928 54.0008 67.3761 54.0451 67.3609 54.0909C67.3567 54.1006 67.3539 54.1103 67.3511 54.12C67.3359 54.1616 67.3206 54.2031 67.3095 54.2461C67.2803 54.3307 67.2539 54.4166 67.2303 54.5039C67.215 54.5621 67.1997 54.6204 67.1858 54.68C67.1692 54.7437 67.1553 54.8075 67.1428 54.8726C67.1414 54.8768 67.14 54.881 67.14 54.8865C67.1303 54.9295 67.1219 54.9738 67.115 55.0182C67.1081 55.0501 67.1025 55.0833 67.0969 55.1166C67.0872 55.172 67.0789 55.2275 67.0719 55.2829C67.065 55.3273 67.0594 55.3716 67.0539 55.4174C67.0525 55.4312 67.0511 55.4437 67.0483 55.4576C67.0428 55.5116 67.0372 55.5671 67.033 55.6211C67.0289 55.6683 67.0247 55.7154 67.0219 55.7639C67.0122 55.8887 67.008 56.0162 67.0053 56.1451C66.9747 58.0094 67.6359 59.9804 68.8667 61.6951C70.0974 63.4097 71.756 64.6669 73.5355 65.2366C74.2147 65.4542 74.8815 65.5623 75.5191 65.5623C75.5858 65.5623 75.6511 65.5609 75.7164 65.5581C75.7775 65.5581 75.8386 65.554 75.8997 65.5484C76.0192 65.5415 76.1359 65.529 76.2526 65.5124C76.2817 65.5083 76.3095 65.5055 76.3373 65.4999C76.3804 65.493 76.4248 65.4861 76.4679 65.4778C76.5443 65.4653 76.6193 65.4486 76.6943 65.432C76.7485 65.4195 76.8027 65.4071 76.8555 65.3918C76.8693 65.389 76.8846 65.3849 76.8985 65.3807L60.1278 82.2358C57.1787 79.7602 54.506 76.8646 52.1807 73.6267Z" fill="black"/>
<path d="M103.724 67.905C103.654 72.0952 102.808 75.9112 101.262 79.1921C99.7174 82.4716 97.4712 85.2189 94.5999 87.2717C91.0021 89.8443 86.6861 91.1001 82.0799 91.0987C75.0704 91.0987 67.39 88.1921 60.557 82.5922L77.111 65.9534L60.3597 82.789C60.2875 82.7322 60.2166 82.6726 60.1444 82.613L77.5 65.1702L78.2126 64.4536C78.2876 64.3995 78.3598 64.3441 78.4307 64.2859C80.7769 62.3716 80.7741 58.2424 78.3723 54.8977C75.9692 51.5544 72.0533 50.2238 69.482 51.8234C69.4042 51.8719 69.3264 51.9232 69.2514 51.9772L68.2429 52.5358L46.7117 64.4536C46.6756 64.3676 46.6395 64.2817 46.6047 64.1958L46.8492 64.0613C44.1002 57.3789 43.1306 50.3194 44.121 44.1457C45.1559 37.6934 48.1786 32.5107 52.8655 29.1605C58.6094 25.0521 66.1773 24.201 74.1772 26.7639C82.2049 29.3337 89.7019 35.032 95.2847 42.8053C100.868 50.5772 103.864 59.4927 103.724 67.905Z" fill="white"/>
<path d="M71.7463 50.8792C71.5754 50.8861 71.406 50.8986 71.2379 50.9222C71.406 50.9 71.5754 50.8861 71.7463 50.8792ZM78.5988 54.7367C78.3779 54.429 78.1445 54.1379 77.9001 53.8649C77.7778 53.7276 77.6528 53.5946 77.525 53.4671C75.815 51.7427 73.6744 50.814 71.7463 50.8792C71.5754 50.8861 71.406 50.8986 71.2379 50.9222C70.9017 50.9651 70.5753 51.04 70.2599 51.1495C70.2002 51.1703 70.1419 51.1911 70.0835 51.2146C69.896 51.2881 69.7112 51.374 69.5334 51.4724C69.4404 51.5237 69.3501 51.5778 69.2598 51.636C69.2112 51.6679 69.1639 51.6998 69.1167 51.7344C69.1125 51.7372 69.107 51.74 69.1028 51.7427L46.8492 64.0611L46.6048 64.1955L46.577 64.2108C46.4534 64.2801 46.4006 64.4298 46.4561 64.5601C46.4867 64.6335 46.5464 64.6904 46.6214 64.7153C46.6867 64.7389 46.7576 64.7361 46.8215 64.7084C46.8298 64.7042 46.8381 64.7001 46.8465 64.6959L47.0646 64.5753L67.8526 53.0692H67.854L68.4249 52.7518L69.3862 52.2196C69.3959 52.214 69.4042 52.2085 69.414 52.2029C69.4598 52.1697 69.507 52.1378 69.5543 52.1073C69.7418 51.9839 69.9377 51.8786 70.1419 51.7885C70.7017 51.5431 71.3129 51.4253 71.9491 51.4253C72.5492 51.4253 73.1701 51.5307 73.7911 51.7316C73.9286 51.7774 74.0661 51.8259 74.2036 51.8813C74.4092 51.9631 74.6148 52.0546 74.819 52.1572C74.9551 52.2251 75.0899 52.2986 75.2246 52.3762C76.2998 52.9958 77.3166 53.9037 78.1473 55.0597C79.3086 56.6773 79.9323 58.5305 79.9031 60.2756C79.8893 61.1336 79.717 61.9126 79.4031 62.5821C79.0891 63.2516 78.6335 63.8116 78.0501 64.2288C78.0376 64.2371 78.0265 64.2468 78.0154 64.2579L77.3416 64.9343L76.8999 65.3793H76.8985L60.1278 82.2357L59.9472 82.4173C59.9472 82.4173 59.9361 82.4298 59.9319 82.4353C59.8874 82.488 59.8638 82.5559 59.868 82.6252C59.8708 82.7029 59.9069 82.7749 59.9666 82.8248C60.0194 82.8678 60.0819 82.89 60.1444 82.89C60.2167 82.89 60.2875 82.8623 60.3417 82.8068L60.3597 82.7888L77.111 65.9531L78.3932 64.6654C78.3932 64.6654 78.396 64.6654 78.396 64.6627C78.4293 64.6391 78.4626 64.6141 78.4946 64.5892C78.5349 64.5587 78.5752 64.5282 78.6127 64.4963C78.6516 64.4644 78.6905 64.4326 78.728 64.3993C78.771 64.3619 78.8127 64.3231 78.8544 64.2842C78.8905 64.251 78.9266 64.2163 78.9613 64.1803C79.0627 64.0791 79.1586 63.9738 79.2489 63.8643C79.2808 63.8254 79.3114 63.7866 79.3433 63.7464C79.3461 63.7423 79.3503 63.7381 79.3545 63.7326C79.4086 63.6619 79.4614 63.5884 79.5128 63.5136C79.5712 63.4262 79.6267 63.3375 79.6809 63.2474C79.7323 63.1601 79.7809 63.07 79.8281 62.9799C79.8531 62.93 79.8782 62.8801 79.9018 62.8302C79.9393 62.7512 79.9754 62.6694 80.0073 62.5876C80.0546 62.4781 80.0962 62.3659 80.1337 62.2522C80.1685 62.1524 80.199 62.0498 80.2268 61.9473C80.256 61.8433 80.2824 61.7393 80.306 61.6326C80.3407 61.4732 80.3699 61.3097 80.3921 61.1433C80.4324 60.8661 80.4532 60.5792 80.4588 60.2853C80.4907 58.421 79.8295 56.45 78.5988 54.7367Z" fill="black"/>
<path d="M67.0219 122.231L58.426 127.52L53.2766 109.907L62.7531 108.127L67.0219 122.231Z" fill="#EBECEE"/>
<path d="M58.4261 127.797C58.3928 127.797 58.3581 127.791 58.3261 127.779C58.2456 127.748 58.183 127.68 58.1594 127.597L53.01 109.984C52.9878 109.909 52.9989 109.827 53.0406 109.761C53.0822 109.694 53.1489 109.647 53.2253 109.633L62.7032 107.853C62.8421 107.827 62.9796 107.91 63.0199 108.046L67.2873 122.151C67.3234 122.272 67.2748 122.401 67.1678 122.467L58.572 127.757C58.5275 127.784 58.4775 127.798 58.4261 127.798V127.797ZM53.6282 110.123L58.5901 127.094L66.6927 122.108L62.5587 108.447L53.6268 110.124L53.6282 110.123Z" fill="black"/>
<path d="M78.2126 64.4535C75.6511 66.2859 71.5671 64.9774 69.0931 61.5329C66.6191 58.0885 66.6899 53.8082 69.2514 51.9771C71.8144 50.1447 75.8969 51.4532 78.3723 54.8976C80.8464 58.3421 80.7741 62.621 78.2112 64.4535H78.2126Z" fill="white"/>
<path d="M75.5193 65.5619C74.8817 65.5619 74.2149 65.4538 73.5342 65.2362C71.7548 64.6665 70.0976 63.4093 68.8668 61.6947C67.6361 59.9801 66.9748 58.009 67.0054 56.1447C67.0374 54.2499 67.7764 52.6892 69.0891 51.7508C71.7714 49.8324 76.0374 51.1714 78.5975 54.735C79.8283 56.4497 80.4895 58.4193 80.4576 60.2836C80.4256 62.1785 79.6852 63.7392 78.3725 64.6776C77.5543 65.2639 76.5764 65.5606 75.5179 65.5606L75.5193 65.5619ZM71.9506 51.425C71.0255 51.425 70.1517 51.6745 69.4141 52.2026C68.2473 53.0357 67.5902 54.4398 67.5624 56.1544C67.5333 57.9009 68.157 59.7528 69.3197 61.3717C70.4824 62.9893 72.0395 64.1744 73.7065 64.7081C75.3429 65.232 76.8862 65.0616 78.0516 64.2285C79.2185 63.3941 79.8755 61.9913 79.9047 60.2753C79.9339 58.5302 79.3102 56.677 78.1475 55.0594C76.4875 52.7488 74.0802 51.4264 71.9506 51.4264V51.425Z" fill="black"/>
<path d="M90.8773 102.849L62.7534 108.126L53.2755 109.906L42.5543 111.917L32.1887 113.863C22.8984 115.941 16.1862 111.96 10.3575 103.846C4.71629 95.9891 3.78697 86.5899 7.48757 80.5784L36.5061 28.3789C29.3661 42.075 31.8442 62.34 44.1004 79.4043C56.569 96.7667 75.4346 105.63 90.8773 102.849Z" fill="white"/>
<path d="M27.4892 114.689C24.7804 114.689 22.2536 114.103 19.8519 112.926C16.4083 111.236 13.2286 108.32 10.1323 104.008C7.36932 100.16 5.64404 95.8532 5.14396 91.5535C4.65916 87.38 5.40789 83.4309 7.25263 80.4342L36.2642 28.2444C36.3379 28.1113 36.5045 28.0628 36.6393 28.1349C36.7726 28.207 36.824 28.3719 36.7546 28.5064C33.229 35.2692 32.0372 43.5969 33.3068 52.59C34.6084 61.7993 38.4187 71.0156 44.328 79.2435C56.3883 96.0362 75.0746 105.412 90.8299 102.577C90.9799 102.548 91.1244 102.649 91.1522 102.8C91.18 102.95 91.0813 103.094 90.9299 103.123L62.806 108.4L53.3281 110.18L32.2414 114.137C30.5939 114.506 29.0131 114.69 27.4906 114.69L27.4892 114.689ZM34.225 33.0542L7.73188 80.7128C5.94548 83.6139 5.22453 87.4382 5.69544 91.4884C6.18441 95.6952 7.87496 99.9118 10.5837 103.683C13.6259 107.919 16.7375 110.78 20.0977 112.427C23.7317 114.209 27.6656 114.589 32.1288 113.591L85.1818 103.635C85.1443 103.635 85.1068 103.635 85.0693 103.635C78.9863 103.635 72.5825 102.044 66.251 98.9276C57.6802 94.7097 49.9428 88.0134 43.8752 79.5651C37.9145 71.2651 34.0694 61.9629 32.7553 52.6663C31.7552 45.5846 32.265 38.9036 34.225 33.0528V33.0542Z" fill="black"/>
<path d="M58.4262 127.52L47.3953 127.377L42.5542 111.917L53.2768 109.906L58.4262 127.52Z" fill="white"/>
<path d="M58.4261 127.797H58.4219L47.391 127.654C47.2701 127.653 47.166 127.574 47.1298 127.46L42.2888 112.001C42.2652 111.926 42.2749 111.843 42.3152 111.775C42.3555 111.707 42.4235 111.66 42.5013 111.645L53.2225 109.634C53.3628 109.607 53.5003 109.692 53.5406 109.829L58.69 127.442C58.715 127.527 58.6984 127.618 58.6442 127.688C58.5914 127.757 58.5094 127.797 58.4233 127.797H58.4261ZM47.6008 127.103L58.0538 127.239L53.0794 110.226L42.9125 112.133L47.5994 127.103H47.6008Z" fill="black"/>
<path d="M103.165 37.0775C87.3987 15.1229 61.3806 6.79099 45.053 18.4662C41.3871 21.0873 38.5228 24.493 36.4613 28.4489C29.338 42.1132 31.8106 62.331 44.0362 79.3579C56.477 96.6788 75.2981 105.521 90.7061 102.749L91.2701 102.64C95.1805 101.859 98.8616 100.319 102.148 97.9678C118.474 86.2926 118.931 59.032 103.164 37.0775H103.165ZM52.1208 73.5779C50.0246 70.6587 48.2757 67.5469 46.9213 64.3242C44.0903 57.5794 43.0818 50.4271 44.082 44.1827C45.1127 37.7525 48.1271 32.5879 52.7973 29.2487C56.3534 26.7052 60.611 25.4148 65.2396 25.4148C68.0608 25.4148 71.0169 25.8943 74.0354 26.8605C82.0395 29.4248 89.5143 35.105 95.0818 42.8562C100.648 50.6073 103.636 59.4936 103.496 67.8824C103.426 72.0601 102.584 75.8608 101.044 79.1306C99.502 82.4005 97.2641 85.1366 94.4026 87.1839C90.82 89.7468 86.5193 90.9985 81.9283 90.9971C74.8619 90.9971 67.1079 88.0308 60.236 82.3242C57.2188 79.8167 54.4878 76.874 52.1194 73.5779H52.1208Z" fill="#EBECEE"/>
<path d="M103.411 36.9002C95.7472 26.23 85.4497 18.4068 74.4119 14.8722C63.342 11.3265 52.8529 12.5158 44.8752 18.2196C41.251 20.813 38.3283 24.2076 36.1919 28.3091C32.6177 35.1634 31.4078 43.5924 32.6927 52.6838C34.0026 61.9625 37.8407 71.248 43.7903 79.5314C49.8468 87.9645 57.5703 94.6483 66.1258 98.8579C72.4463 101.968 78.8376 103.558 84.9108 103.558C86.9014 103.558 88.8558 103.388 90.7631 103.044L91.3284 102.937C95.3722 102.128 99.0714 100.538 102.325 98.2134C110.3 92.5095 114.8 82.9814 114.993 71.3825C115.186 59.8168 111.073 47.5705 103.41 36.9002H103.411ZM114.389 71.3727C114.199 82.7735 109.788 92.1325 101.972 97.7213C98.7894 99.9959 95.168 101.552 91.2132 102.344L90.652 102.449C88.785 102.786 86.8764 102.95 84.9427 102.95C70.6085 102.95 54.881 93.9344 44.2834 79.1807C38.3908 70.9749 34.5916 61.7836 33.2942 52.6007C32.0273 43.6339 33.2164 35.3312 36.7308 28.5905C38.8228 24.5736 41.6816 21.2497 45.2308 18.7131C50.0885 15.2395 55.9047 13.4764 62.2238 13.4764C66.073 13.4764 70.1084 14.132 74.2285 15.4502C85.1427 18.946 95.3319 26.6901 102.919 37.2537C110.507 47.8186 114.581 59.936 114.389 71.3741V71.3727Z" fill="black"/>
<path d="M95.3276 42.6817C83.7397 26.5474 64.6199 20.4236 52.6222 29.0036C42.8539 35.9868 40.8161 50.5603 46.6434 64.4408C47.9756 67.6136 49.7175 70.7518 51.8748 73.7541C54.3099 77.1459 57.0798 80.0969 60.0442 82.5573C71.1876 91.8123 85.1052 94.2075 94.5817 87.4308C106.582 78.8494 106.916 58.8146 95.329 42.6817H95.3276ZM101.045 79.1322C99.5033 82.402 97.2654 85.1382 94.4039 87.1855C90.8213 89.7484 86.5207 91.0001 81.9296 90.9987C74.8632 90.9987 67.1092 88.0324 60.2373 82.3258C57.2201 79.8183 54.4891 76.8756 52.1207 73.5794C50.0245 70.6603 48.2756 67.5485 46.9213 64.3258C44.0903 57.581 43.0818 50.4287 44.0819 44.1842C45.1126 37.7541 48.127 32.5894 52.7972 29.2503C56.3533 26.7068 60.611 25.4163 65.2395 25.4163C68.0608 25.4163 71.0168 25.8959 74.0353 26.862C82.0394 29.4263 89.5142 35.1066 95.0817 42.8577C100.648 50.6089 103.636 59.4952 103.496 67.8839C103.426 72.0617 102.584 75.8624 101.044 79.1322H101.045Z" fill="white"/>
<path d="M95.5735 42.5041C89.9323 34.649 82.3491 28.8897 74.2215 26.2866C66.0604 23.6724 58.3272 24.5512 52.4443 28.7594C47.6408 32.1942 44.5417 37.4947 43.4846 44.0884C42.4664 50.4409 43.4874 57.7097 46.3628 64.5571C47.7339 67.8227 49.505 70.9761 51.6276 73.9299C54.0265 77.2691 56.7923 80.2506 59.8497 82.7886C66.8342 88.5894 74.7215 91.6014 81.9324 91.6014C84.2883 91.6014 86.5734 91.2785 88.7293 90.627C90.8866 89.9755 92.9147 88.9942 94.7581 87.676C100.641 83.4678 103.96 76.4416 104.104 67.892C104.246 59.3758 101.217 50.3578 95.5749 42.5027L95.5735 42.5041ZM103.497 67.8837C103.428 72.0615 102.586 75.8622 101.045 79.132C99.5033 82.4018 97.2654 85.138 94.4038 87.1853C90.8213 89.7482 86.5206 90.9999 81.9296 90.9985C74.8632 90.9985 67.1092 88.0322 60.2373 82.3256C57.2201 79.8181 54.4891 76.8754 52.1207 73.5793C50.0245 70.6601 48.2756 67.5483 46.9212 64.3256C44.0902 57.5808 43.0817 50.4285 44.0819 44.184C45.1126 37.7539 48.127 32.5892 52.7972 29.2501C56.3533 26.7066 60.6109 25.4161 65.2395 25.4161C68.0607 25.4161 71.0168 25.8957 74.0353 26.8618C82.0394 29.4261 89.5142 35.1064 95.0817 42.8575C100.648 50.6087 103.636 59.495 103.496 67.8837H103.497Z" fill="black"/>
<path d="M53.2956 124.597C52.2471 126.464 50.9728 127.737 50.0785 128.505C46.3885 130.711 42.6985 132.918 39.0113 135.124C39.0142 135.062 39.0156 135.001 39.0199 134.939C39.2656 134.769 39.5085 134.585 39.7513 134.385C42.9499 131.742 43.6756 128.121 44.0613 126.197C45.0028 121.489 43.7428 117.721 42.767 114.807C40.8299 109.018 37.5985 105.315 36.3013 103.938C34.1042 101.604 30.8013 98.0938 25.3413 96.7952C23.3742 96.3281 19.2042 95.3366 15.3656 97.5952C18.8156 95.5224 22.2628 93.4509 25.7099 91.3766C28.2813 90.5609 33.5756 89.3338 39.0642 91.5152C41.5499 92.5038 43.2228 93.8509 44.5371 94.9095C45.6685 95.8224 49.6428 99.1752 52.4328 105.138C53.4085 107.225 55.1113 110.967 55.1413 116.037C55.1542 118.202 55.1342 121.315 53.2942 124.595L53.2956 124.597Z" fill="#FF7E88"/>
<path d="M39.0113 135.411C38.9599 135.411 38.9099 135.397 38.8642 135.369C38.7742 135.315 38.7213 135.215 38.7256 135.109L38.7342 134.925C38.7385 134.837 38.7842 134.755 38.857 134.705C39.0942 134.541 39.3342 134.359 39.5699 134.165C42.6885 131.588 43.3985 128.047 43.7799 126.144C44.707 121.509 43.4813 117.844 42.4971 114.899C40.7956 109.815 38.0756 106.239 36.0942 104.134C33.927 101.831 30.6528 98.3523 25.277 97.0738C23.3213 96.6095 19.2528 95.6409 15.5128 97.8423C15.377 97.9223 15.2028 97.8781 15.1228 97.7423C15.0428 97.6066 15.087 97.4323 15.2213 97.3509C18.6713 95.2781 22.1185 93.2066 25.5656 91.1323C25.5842 91.1209 25.6056 91.1109 25.6271 91.1052C28.9699 90.0438 34.0342 89.2081 39.1728 91.2509C41.6999 92.2552 43.3742 93.6038 44.7185 94.6881C46.6028 96.2081 50.1456 99.5709 52.6942 105.018C53.5728 106.895 55.3985 110.799 55.4299 116.037C55.4413 118.014 55.4613 121.322 53.547 124.737C52.707 126.234 51.6042 127.574 50.2671 128.722C50.2542 128.732 50.2413 128.742 50.227 128.751C46.537 130.957 42.847 133.164 39.1599 135.369C39.1142 135.397 39.0642 135.409 39.0128 135.409L39.0113 135.411ZM20.867 95.8838C22.737 95.8838 24.3628 96.2709 25.407 96.5181C30.9499 97.8366 34.2956 101.391 36.5085 103.742C38.5299 105.888 41.3028 109.535 43.0371 114.715C43.9913 117.568 45.2971 121.471 44.3399 126.252C43.9913 127.994 43.377 131.051 40.997 133.604C43.9685 131.827 46.9399 130.049 49.9113 128.272C51.1885 127.171 52.2442 125.887 53.047 124.457C54.8885 121.174 54.8699 118.084 54.8571 116.039C54.8271 110.928 53.0356 107.099 52.1756 105.259C49.6756 99.9166 46.2056 96.6209 44.3585 95.1323C43.0428 94.0723 41.407 92.7538 38.9599 91.7823C33.9928 89.8081 29.0842 90.6123 25.8299 91.6395C23.3356 93.1395 20.8399 94.6409 18.3442 96.1395C19.2128 95.9538 20.0628 95.8823 20.8685 95.8823L20.867 95.8838Z" fill="black"/>
<path d="M42.767 114.807C40.8299 109.018 37.5985 105.315 36.3013 103.938C34.1042 101.604 30.8013 98.0938 25.3413 96.7952C23.3742 96.3281 19.2042 95.3366 15.3656 97.5952C12.8485 99.0781 11.6468 101.268 10.9939 102.491C8.66393 106.862 9.26822 111.222 9.63964 113.914C10.3468 119.019 12.4411 122.561 13.5811 124.442C14.9111 126.641 17.7382 131.189 23.3096 134.357C25.5468 135.629 28.4596 137.285 32.4525 137.065C33.5039 137.007 36.3282 136.814 39.0196 134.941C39.2654 134.771 39.5082 134.587 39.7511 134.387C42.9496 131.744 43.6754 128.122 44.0611 126.198C45.0025 121.491 43.7425 117.722 42.7668 114.808L42.767 114.807ZM24.2939 114.188C24.2368 114.478 24.1268 115.024 23.6439 115.422C23.2068 115.782 22.7168 115.817 22.5425 115.827C21.9411 115.859 21.5011 115.609 21.1639 115.418C20.3254 114.941 19.8982 114.255 19.6968 113.924C19.5254 113.641 19.2096 113.107 19.1025 112.337C19.0468 111.931 18.9554 111.274 19.3068 110.614C19.4054 110.429 19.5868 110.098 19.9654 109.875C20.5439 109.535 21.1725 109.684 21.4682 109.755C22.2925 109.949 22.7896 110.479 23.1211 110.831C23.3154 111.038 23.8025 111.597 24.0954 112.469C24.2425 112.909 24.4325 113.477 24.2896 114.187L24.2939 114.188ZM34.6296 118.071C34.5725 118.361 34.4625 118.907 33.9796 119.305C33.5425 119.665 33.0525 119.699 32.8782 119.709C32.2768 119.742 31.8382 119.492 31.4996 119.301C30.6611 118.824 30.2339 118.138 30.0325 117.807C29.8611 117.524 29.5454 116.989 29.4382 116.219C29.3825 115.814 29.2911 115.157 29.6425 114.497C29.7411 114.312 29.9225 113.981 30.3011 113.758C30.8796 113.418 31.5082 113.567 31.8054 113.638C32.6282 113.832 33.1254 114.362 33.4568 114.714C33.6511 114.921 34.1411 115.479 34.4311 116.352C34.5782 116.792 34.7682 117.359 34.6254 118.069L34.6296 118.071Z" fill="#FF444F"/>
<path d="M31.7425 137.369C28.031 137.369 25.241 135.782 23.1682 134.604C17.4153 131.332 14.5567 126.607 13.3367 124.588C12.2825 122.848 10.0867 119.225 9.35674 113.951C8.98674 111.271 8.37103 106.802 10.7425 102.355C11.341 101.234 12.5882 98.8994 15.221 97.348C19.1596 95.0309 23.3796 96.0337 25.4067 96.5166C30.9496 97.8352 34.2953 101.389 36.5082 103.741C38.5296 105.887 41.3025 109.534 43.0367 114.714L42.7653 114.804L43.0371 114.715C43.9899 117.565 45.2953 121.469 44.3382 126.249C43.9425 128.225 43.2053 131.897 39.931 134.602C39.6825 134.807 39.431 134.998 39.181 135.171C36.3696 137.128 33.4325 137.292 32.4667 137.347C32.221 137.359 31.9796 137.367 31.741 137.367L31.7425 137.369ZM20.8725 96.4566C19.191 96.4566 17.3125 96.7809 15.511 97.8409C13.0167 99.3109 11.821 101.549 11.2467 102.624C8.96246 106.908 9.56389 111.262 9.92246 113.862C10.6367 119.029 12.791 122.582 13.8267 124.291C15.0239 126.271 17.8296 130.908 23.4525 134.105C25.7153 135.392 28.5296 136.992 32.4382 136.777C33.3639 136.725 36.1796 136.567 38.8567 134.702C39.0939 134.538 39.3339 134.357 39.5696 134.162C42.6882 131.585 43.3982 128.044 43.7796 126.141C44.7067 121.507 43.481 117.841 42.4967 114.897L42.7667 114.804L42.4953 114.894C40.7953 109.811 38.0753 106.235 36.0925 104.131C33.9253 101.828 30.651 98.3494 25.2753 97.0709C24.2625 96.8294 22.681 96.4537 20.8725 96.4537V96.4566ZM32.7725 119.998C32.1539 119.998 31.7025 119.742 31.3667 119.552C30.4382 119.024 29.9839 118.274 29.7896 117.954C29.6353 117.699 29.2739 117.105 29.1567 116.258C29.0967 115.822 28.9982 115.101 29.3925 114.362C29.4839 114.189 29.701 113.782 30.1582 113.511C30.841 113.109 31.5653 113.285 31.8753 113.359C32.7753 113.572 33.3096 114.138 33.6625 114.512C34.131 115.012 34.4896 115.615 34.7053 116.262C34.8582 116.718 35.0667 117.341 34.9096 118.125C34.8496 118.428 34.7253 119.059 34.1625 119.525C33.8182 119.808 33.3925 119.967 32.8953 119.994C32.8539 119.997 32.8125 119.997 32.7725 119.997V119.998ZM31.1339 113.829C30.9153 113.829 30.6739 113.871 30.4482 114.004C30.1296 114.192 29.9782 114.477 29.8967 114.631C29.5896 115.207 29.6696 115.791 29.7225 116.177C29.8239 116.909 30.131 117.415 30.2782 117.658C30.4496 117.941 30.8496 118.602 31.6425 119.052C31.9767 119.241 32.3482 119.452 32.8639 119.424C33.0025 119.417 33.4253 119.392 33.7982 119.085C34.2039 118.749 34.2982 118.272 34.3482 118.015C34.4753 117.379 34.3025 116.861 34.1625 116.445C33.9725 115.875 33.6567 115.345 33.2496 114.911C32.921 114.562 32.4753 114.091 31.741 113.918C31.601 113.884 31.381 113.831 31.1339 113.831V113.829ZM22.4367 116.115C21.8153 116.115 21.361 115.858 21.0253 115.667C20.1039 115.142 19.6482 114.391 19.4539 114.071C19.2996 113.817 18.9382 113.221 18.821 112.375C18.761 111.939 18.6625 111.218 19.0567 110.479C19.1567 110.291 19.3653 109.899 19.8225 109.628C20.5067 109.227 21.2296 109.402 21.5382 109.477C22.4396 109.689 22.9739 110.255 23.3267 110.629C23.7939 111.128 24.1525 111.731 24.3696 112.379C24.5225 112.835 24.731 113.458 24.5739 114.242C24.5139 114.545 24.3896 115.177 23.8267 115.642C23.4825 115.925 23.0567 116.084 22.5596 116.111C22.5182 116.114 22.4767 116.114 22.4353 116.114L22.4367 116.115ZM20.7996 109.947C20.581 109.947 20.341 109.988 20.1139 110.121C19.7953 110.309 19.6439 110.595 19.5625 110.748C19.2553 111.324 19.3353 111.908 19.3882 112.294C19.4896 113.025 19.7967 113.531 19.9439 113.775C20.1153 114.058 20.5153 114.719 21.3082 115.169C21.6225 115.348 22.0125 115.569 22.5296 115.541C22.6682 115.534 23.091 115.509 23.4639 115.202C23.8696 114.867 23.9639 114.389 24.0139 114.132C24.141 113.497 23.9682 112.978 23.8282 112.562C23.6367 111.991 23.321 111.461 22.9153 111.028C22.5867 110.679 22.141 110.208 21.4053 110.035C21.2653 110.001 21.0453 109.948 20.7982 109.948L20.7996 109.947Z" fill="black"/>
<path d="M33.549 128.014C33.3869 128.014 33.2299 127.939 33.1296 127.796C32.018 126.22 30.662 124.911 29.0975 123.911C27.6282 122.97 25.9634 121.902 23.7531 122.071C22.7496 122.146 21.7692 122.465 20.8455 123.014C20.601 123.159 20.2845 123.079 20.1405 122.83C19.9964 122.584 20.0761 122.265 20.3231 122.12C21.3858 121.487 22.5154 121.122 23.6785 121.034C26.2285 120.842 28.1274 122.055 29.6533 123.032C31.331 124.105 32.7822 125.505 33.9736 127.192C34.1382 127.425 34.0842 127.749 33.8526 127.915C33.7626 127.98 33.6571 128.011 33.5541 128.011L33.549 128.014Z" fill="black"/>
<path d="M24.1 112.471C24.2471 112.911 24.4368 113.478 24.2939 114.188C24.2368 114.478 24.1268 115.024 23.6439 115.422C23.2068 115.782 22.7168 115.817 22.5425 115.827C21.9411 115.859 21.5011 115.609 21.1639 115.418C20.3254 114.941 19.8982 114.255 19.6968 113.924C19.5254 113.641 19.2096 113.107 19.1025 112.337C19.0468 111.931 18.9554 111.274 19.3068 110.614C19.4054 110.429 19.5868 110.098 19.9654 109.875C20.5439 109.535 21.1725 109.684 21.4682 109.755C22.2925 109.949 22.7896 110.479 23.1211 110.831C23.3154 111.038 23.8025 111.597 24.0954 112.469L24.1 112.471Z" fill="white"/>
<path d="M22.4367 116.115C21.8153 116.115 21.361 115.858 21.0253 115.667C20.1039 115.142 19.6485 114.391 19.4557 114.071C19.3014 113.817 18.94 113.221 18.8228 112.375C18.7628 111.94 18.6642 111.218 19.0585 110.48C19.1585 110.291 19.3671 109.9 19.8243 109.628C20.5085 109.227 21.2314 109.402 21.54 109.477C22.4414 109.69 22.9757 110.255 23.3285 110.63C23.7957 111.128 24.1542 111.731 24.3714 112.38C24.5242 112.835 24.7328 113.458 24.5757 114.244C24.5157 114.547 24.3914 115.177 23.8285 115.642C23.4843 115.925 23.0585 116.084 22.5614 116.111C22.52 116.114 22.4785 116.114 22.4371 116.114L22.4367 116.115ZM20.7996 109.947C20.581 109.947 20.341 109.988 20.1139 110.121C19.7953 110.309 19.6439 110.595 19.5625 110.748C19.2553 111.324 19.3353 111.908 19.3882 112.294C19.4896 113.025 19.7967 113.531 19.9439 113.775C20.1153 114.058 20.5153 114.719 21.3082 115.169C21.6225 115.348 22.0125 115.569 22.5296 115.541C22.6682 115.532 23.091 115.509 23.4639 115.202C23.8696 114.867 23.9639 114.389 24.0139 114.132C24.141 113.495 23.9685 112.978 23.8285 112.561C23.6371 111.99 23.3214 111.46 22.9157 111.027C22.5871 110.678 22.1414 110.207 21.4057 110.034C21.2657 110 21.0457 109.947 20.7985 109.947L20.7996 109.947Z" fill="black"/>
<path d="M34.6296 118.071C34.5725 118.361 34.4625 118.907 33.9796 119.305C33.5425 119.665 33.0525 119.699 32.8782 119.709C32.2768 119.742 31.8382 119.492 31.4996 119.301C30.6611 118.824 30.2339 118.138 30.0325 117.807C29.8611 117.524 29.5454 116.989 29.4382 116.219C29.3825 115.814 29.2911 115.157 29.6425 114.497C29.7411 114.312 29.9225 113.981 30.3011 113.758C30.8796 113.418 31.5082 113.567 31.8054 113.638C32.6282 113.832 33.1254 114.362 33.4568 114.714C33.6511 114.921 34.1411 115.479 34.4311 116.352C34.5782 116.792 34.7682 117.359 34.6254 118.069L34.6296 118.071Z" fill="white"/>
<path d="M32.7725 119.998C32.1539 119.998 31.7025 119.742 31.3667 119.552C30.4382 119.024 29.9839 118.274 29.7896 117.954C29.6353 117.699 29.2739 117.105 29.1567 116.258C29.0967 115.822 28.9982 115.101 29.3925 114.362C29.4839 114.189 29.701 113.782 30.1582 113.511C30.841 113.109 31.5653 113.285 31.8753 113.359C32.7753 113.572 33.3096 114.138 33.6625 114.512C34.131 115.012 34.4896 115.615 34.7053 116.262C34.8582 116.718 35.0667 117.341 34.9096 118.125C34.8496 118.428 34.7253 119.059 34.1625 119.525C33.8182 119.808 33.3925 119.967 32.8953 119.994C32.8539 119.997 32.8125 119.997 32.7725 119.997V119.998ZM31.1339 113.829C30.9153 113.829 30.6739 113.871 30.4482 114.004C30.1296 114.192 29.9782 114.478 29.8967 114.631C29.5896 115.207 29.6696 115.791 29.7225 116.177C29.8239 116.909 30.131 117.415 30.2782 117.658C30.4496 117.941 30.8496 118.602 31.6425 119.052C31.9767 119.241 32.3496 119.451 32.8639 119.424C33.0025 119.417 33.4253 119.392 33.7982 119.085C34.2039 118.749 34.2982 118.272 34.3482 118.015C34.4753 117.379 34.3025 116.861 34.1625 116.445C33.9725 115.875 33.6567 115.345 33.2496 114.911C32.921 114.562 32.4753 114.091 31.741 113.918C31.601 113.884 31.381 113.831 31.1339 113.831V113.829Z" fill="black"/>
<path d="M34.6296 118.071C34.5725 118.361 34.4625 118.907 33.9796 119.305C33.5425 119.665 33.0525 119.699 32.8782 119.709C32.2768 119.742 31.8382 119.492 31.4996 119.301C30.6611 118.824 30.2339 118.138 30.0325 117.807C29.8611 117.524 29.5454 116.989 29.4382 116.219C29.3825 115.814 29.2911 115.157 29.6425 114.497C29.7411 114.312 29.9225 113.981 30.3011 113.758C30.8796 113.418 31.5082 113.567 31.8054 113.638C32.6282 113.832 33.1254 114.362 33.4568 114.714C33.6511 114.921 34.1411 115.479 34.4311 116.352C34.5782 116.792 34.7682 117.359 34.6254 118.069L34.6296 118.071Z" fill="#FF535E"/>
<path d="M32.7725 119.998C32.1539 119.998 31.7025 119.742 31.3667 119.552C30.4382 119.024 29.9839 118.274 29.7896 117.954C29.6353 117.699 29.2739 117.105 29.1567 116.258C29.0967 115.822 28.9982 115.101 29.3925 114.362C29.4839 114.189 29.701 113.782 30.1582 113.511C30.841 113.109 31.5653 113.285 31.8753 113.359C32.7753 113.572 33.3096 114.138 33.6625 114.512C34.131 115.012 34.4896 115.615 34.7053 116.262C34.8582 116.718 35.0667 117.341 34.9096 118.125C34.8496 118.428 34.7253 119.059 34.1625 119.525C33.8182 119.808 33.3925 119.967 32.8953 119.994C32.8539 119.997 32.8125 119.997 32.7725 119.997V119.998ZM31.1339 113.829C30.9153 113.829 30.6739 113.871 30.4482 114.004C30.1296 114.192 29.9782 114.478 29.8967 114.631C29.5896 115.207 29.6696 115.791 29.7225 116.177C29.8239 116.909 30.131 117.415 30.2782 117.658C30.4496 117.941 30.8496 118.602 31.6425 119.052C31.9767 119.241 32.3496 119.451 32.8639 119.424C33.0025 119.417 33.4253 119.392 33.7982 119.085C34.2039 118.749 34.2982 118.272 34.3482 118.015C34.4753 117.379 34.3025 116.861 34.1625 116.445C33.9725 115.875 33.6567 115.345 33.2496 114.911C32.921 114.562 32.4753 114.091 31.741 113.918C31.601 113.884 31.381 113.831 31.1339 113.831V113.829Z" fill="black"/>
<path d="M24.2939 114.188C24.2368 114.478 24.1268 115.024 23.6439 115.422C23.2068 115.782 22.7168 115.817 22.5425 115.827C21.9411 115.859 21.5011 115.609 21.1639 115.418C20.3254 114.941 19.8982 114.255 19.6968 113.924C19.5254 113.641 19.2096 113.107 19.1025 112.337C19.0468 111.931 18.9554 111.274 19.3068 110.614C19.4054 110.429 19.5868 110.098 19.9654 109.875C20.5439 109.535 21.1725 109.684 21.4682 109.755C22.2925 109.949 22.7896 110.479 23.1211 110.831C23.3154 111.038 23.8025 111.597 24.0954 112.469C24.2425 112.909 24.4325 113.477 24.2896 114.187L24.2939 114.188Z" fill="#FF535E"/>
<path d="M22.4367 116.115C21.8153 116.115 21.361 115.858 21.0253 115.667C20.1039 115.142 19.6485 114.391 19.4557 114.071C19.3014 113.817 18.94 113.221 18.8228 112.375C18.7628 111.94 18.6642 111.218 19.0585 110.48C19.1585 110.291 19.3671 109.9 19.8243 109.628C20.5085 109.227 21.2314 109.402 21.54 109.477C22.4414 109.69 22.9757 110.255 23.3285 110.63C23.7957 111.128 24.1542 111.731 24.3714 112.38C24.5242 112.835 24.7328 113.458 24.5757 114.242C24.5157 114.545 24.3914 115.177 23.8285 115.642C23.4843 115.925 23.0585 116.084 22.5614 116.111C22.52 116.114 22.4785 116.114 22.4371 116.114L22.4367 116.115ZM20.7996 109.947C20.581 109.947 20.341 109.988 20.1139 110.121C19.7953 110.309 19.6439 110.595 19.5625 110.748C19.2553 111.324 19.3353 111.908 19.3882 112.294C19.4896 113.025 19.7967 113.531 19.9439 113.775C20.1153 114.058 20.5153 114.719 21.3082 115.169C21.6225 115.348 22.0125 115.569 22.5296 115.541C22.6682 115.532 23.091 115.509 23.4639 115.202C23.8696 114.867 23.9639 114.389 24.0139 114.132C24.141 113.497 23.9682 112.978 23.8282 112.562C23.6367 111.991 23.321 111.461 22.9153 111.028C22.5867 110.679 22.141 110.208 21.4053 110.035C21.2653 110.001 21.0453 109.948 20.7982 109.948L20.7996 109.947Z" fill="black"/>
</svg>
